<!-- <?xml version="1.0" encoding="UTF-8" standalone="no"?> -->
<svg width="762.999" height="549.586" style="border: 1px solid red;">
	<path d="M554.569 73.436l-1.173 299.743 5.866 3.406 11.144.568 5.28-3.974h9.385l.586 10.218 25.223 23.843 1.76 9.084 12.317-6.813 2.347-.567 1.173-10.787 5.279-5.677 4.106-.567 7.039-5.11 11.145 7.38 2.346 10.22 7.039 3.973 4.106 8.515 14.078 6.245 12.317 21.005 9.972 13.624 8.212 9.651 5.28 13.057 18.183 6.245 18.77 7.38 3.52 15.328 1.76 10.786-3.52 11.921-6.453 7.948-5.865-2.838-5.28-10.787-9.971-5.109-6.452-3.974-2.933 2.839 5.28 9.65.586 13.058-4.106 1.703-7.04-6.813-7.625-4.541 1.76 5.677 4.693 6.244-2.933 2.839s-2.933-1.136-4.693-3.406c-1.76-2.271-7.625-11.922-7.625-11.922l-3.52-7.948s-1.173 4.542-3.519 3.406c-2.346-1.135-4.692-5.109-4.692-5.109l6.452-6.812-5.28-5.11V493.53h-2.932l-2.933 11.922-4.106 1.703-3.52-13.057-2.346-13.057-2.933-1.703 1.174 19.87v3.973l-5.28-4.542-12.904-21.004-7.626-1.703-2.346-13.057-5.866-10.219-5.865-3.974v-7.948l7.625-4.541-1.76-1.135-9.385 2.27-12.318-8.515-9.385-10.219-17.597-9.083-14.664-9.083 4.692-11.354v-5.677l-6.452 5.677-10.558 3.974-13.491-3.974-20.53-8.515h-19.944l-2.346 1.703-23.463-13.625-7.625-1.135-9.972-20.437-12.905 1.135-12.904 5.11 1.76 15.895 4.106-10.219 3.519 1.136-5.279 15.328 11.731-9.651 2.347 5.677-14.078 15.327-4.693-1.135-1.76-6.812-4.692-2.839-4.693 3.974-9.971-6.245-11.145 7.38-6.452 7.38-12.318 7.38-17.01-.567-1.76-7.38 13.49-2.27v-4.542l-8.211-2.271 3.519-8.516 8.212-13.624v-6.245l.586-2.839 15.838-7.947 3.52 4.541h9.971l-4.693-9.083-13.49-1.135-18.184 9.65-8.799 11.922-6.452 9.083-4.106 7.948-15.251 5.11-11.145 9.082-1.173 5.677 8.212 3.407 2.933 7.38-9.972 11.353-23.463 14.76-28.155 14.76-7.625 3.974-19.357 3.974-19.357 7.948 6.452 4.542-5.28 5.109-1.759 3.974-9.971-3.406-11.732.567-2.933 7.948h-3.52l1.174-8.515-12.904 4.541-10.559 3.406-12.318-4.541-10.558 6.812h-11.731l-7.626 4.542-5.865 2.838-7.626-1.135-9.385-3.974-8.212 2.27-3.52 3.407-5.865-3.974v-6.812l11.144-4.542 22.877 2.27 15.837-5.676 7.626-7.38 10.558-2.27 6.452-2.84 9.972.568 5.866 4.542 3.519-1.135 8.212-9.651 11.145-3.407 12.318-2.27 4.692-1.136 2.347 1.703h2.933l4.692-13.057 14.664-5.109 7.04-13.057 8.211-15.895 5.866-5.11 1.173-9.083-5.866 4.542-12.318 2.27-2.346-8.515-4.693-1.135-3.519 3.406-.586 10.219-5.28-.568-5.279-20.437-4.692 4.541-4.106-1.703-1.174-6.812-14.664.568-7.625 3.974-9.385-1.136 5.279-5.109 1.76-9.083-2.347-6.813 5.28-3.406 4.692-.567-2.346-6.245v-15.328l-3.52-3.406-2.933 5.11h-22.29l-5.278-4.542-2.347-13.625-7.625-12.49v-3.405l7.625-2.839.587-7.38 4.106-3.974-2.933-1.703-4.693 1.703-4.105-9.65 3.52-17.6 16.423-11.353 9.385-5.677 7.039-13.057 9.972-4.542 9.385 3.974 1.173 8.516 8.798-1.136 11.732-8.515 5.866 2.27 3.519 2.271h5.866l8.212-4.541 2.932-15.328s1.173-10.218 3.52-11.921c2.346-1.704 3.52-3.407 3.52-3.407l-4.107-6.812-9.385 2.839-11.731 2.838-7.039-1.703-12.905-6.245-18.183-.567-12.905-13.057 1.76-13.625 2.346-8.516-7.625-6.244-7.04-13.057 1.76-2.839 24.637-1.703h7.625l3.52 3.406h2.346l-.587-5.677 14.078-2.27 9.385 1.135 5.28 3.974-5.28 7.38-1.76 5.11 9.972 5.676 18.184 6.245 6.452-3.406-8.212-15.328-3.52-11.354 3.52-2.838-12.318-6.813-1.76-3.974 1.76-5.677-2.933-13.624-10.558-16.463-8.799-14.76 10.558-6.813h11.732l6.452 2.27 15.251-.567 13.491-12.489 4.106-10.786 13.491-8.516 5.866 3.407 9.972-2.271 13.49-7.38 4.107-.568 3.52 2.838 16.423-.567 9.972-10.786h4.106l12.904 8.515 7.04 7.38-1.76 3.974 2.346 3.974 5.865-5.677 14.078 1.135 1.173 13.057 7.04 5.11 25.809 2.27 22.876 14.76 5.279-3.406 18.77 9.083 7.626-2.27 7.038-2.839 17.597 6.812zM136.931 175.053l7.625 18.734-.587 3.406-10.558-1.135-6.452-14.192-6.452-5.11h-8.799l-.587-9.083 6.453-8.515 4.106 8.515 5.279 5.11zm-9.386 117.513l13.491 2.839 13.492 3.406 2.932 3.406-5.865 13.057-11.145-.568-12.318-12.489zm-75.08-49.39l4.105 9.084 4.106 5.677-4.106 2.838-7.625-10.786v-6.812zM2.605 499.776l12.318-7.948 12.318-3.406 9.385 1.135 1.76 5.677 7.038 1.703 7.04-6.812-1.174-5.677 9.972-2.27 10.558 9.082-4.106 6.245-15.837 3.974-9.972-1.703-13.49-3.974-15.839 5.11-5.865 1.135zm177.73-15.896l5.866 6.813 7.626-5.677-5.28-4.542zm10.559 10.786l4.106-7.947 7.625 1.135-2.933 6.812zm85.64-6.812l5.278 6.245 3.52-3.974-2.933-6.812zm31.674-43.712l4.106 20.437 10.558 2.838 18.184-10.218 15.837-9.084-5.865-8.515 1.76-8.515-7.626 4.541-10.558-2.838 5.865-3.974 7.04 2.838 14.077-6.244 1.76-5.11-8.799-2.838 2.933-6.812-9.971 6.812-17.011 12.49-17.597 10.218zm153.682-69.827l8.798-5.109-3.519-6.245-6.452 3.406z" fill="currentColor" stroke="currentColor" stroke-width="1" />
</svg>