<svg xmlns="http://www.w3.org/2000/svg" width="361.901" height="431.701">
	<title>Georgia</title>
	<g fill="currentColor">
		<path d="M.291 8.702c.146 4.72.873 8.26 1.6 7.964.582-.442 1.018 1.918.582 5.163-.291 3.244.145 5.604.727 5.162.727-.443 1.163 1.917.727 5.162-.291 3.245.145 5.604.872 5.162.582-.443 1.018 1.475.582 4.425-.291 2.95 0 4.867.727 4.424.872-.442 1.163 1.475.727 4.425-.291 2.95-.146 5.015.436 4.72 1.308-.885 3.053 18.14 1.89 20.206-.727 1.032-.29 1.18.872.442 1.309-.885 1.6.295 1.164 4.867-.291 3.245-.146 5.752.436 5.457 1.308-.885 4.507 26.99 3.344 28.908-.727 1.18-.436 1.327.872.59 1.309-.885 1.6.295 1.164 4.867-.291 3.245-.146 5.752.436 5.31 1.163-.59 3.053 13.421 3.344 24.04 0 4.13.582 7.227 1.309 6.785.581-.295 1.017 1.18 1.017 3.54 0 2.212.582 6.342 1.309 8.997.872 2.654.872 4.424.436 4.13-.581-.443-1.163.59-1.163 2.064 0 1.475.582 2.36 1.454 1.917.727-.59 1.018 1.918.582 6.195-.582 4.277-.291 6.195.436 5.015.872-1.475 1.308-.59 1.308 2.654 0 2.508.582 5.163 1.454 5.605.727.442 1.454 1.622 1.454 2.36 0 .885-.872 1.032-1.744.442-1.454-.885-1.454-.737-.146 1.18 1.018 1.18 1.309 2.802.727 3.392-.581.738-.145.738 1.018 0 1.6-.884 1.89-.442 1.309 1.918-.582 2.065-.291 2.95.581 2.36 1.018-.738 1.309.295.873 2.802-.437 2.36-.146 3.54.727 2.95.872-.59 1.163.59.727 3.097-.437 2.212-.437 3.54 0 3.097.727-.737 3.198 3.097 6.252 9.587.872 2.065 2.18 4.867 2.908 6.195.727 1.622.727 4.13-.291 6.637-1.309 3.54-1.018 4.424 2.18 7.08 2.037 1.769 3.781 3.686 3.781 4.571 0 .885-2.762 3.982-6.252 6.932-6.107 5.162-6.834 7.08-6.834 16.371-.145 2.36-1.454 6.637-3.053 9.292-2.181 3.393-2.908 6.785-2.472 10.62.29 3.244-.145 5.457-.727 5.014-.727-.442-.581.59.29 2.065.873 1.622 1.164 3.392.728 3.835-.436.442 0 1.18 1.018 1.917 1.163.737 1.454.442.581-1.032-.872-1.623-.727-1.77.727-.295 1.164 1.032 2.036 4.13 2.036 6.932.145 2.802.727 4.72 1.454 4.13.727-.443.872.737.436 2.802-.581 1.917-1.018 4.13-1.018 4.72 0 .737-.581.884-1.163.442-.581-.295-1.308.737-1.308 2.507-.291 2.655 0 2.802 1.163 1.032 1.308-1.77 1.454-1.622.581.738-1.89 6.047-3.344 15.781-2.471 18.731.581 2.36.29 2.802-1.31 1.77-1.308-.738-1.162 0 .583 2.36 4.507 6.49 11.777 24.483 13.667 33.922 1.89 9.882 1.89 9.882 24.137 11.062 11.34.59 22.537 1.327 25.008 1.475 2.472.147 12.214.885 21.81 1.327 9.597.59 19.775 1.328 22.537 1.622 2.763.296 12.941 1.033 22.537 1.475 9.597.443 25.3 1.475 34.896 2.213 15.122 1.18 39.113 2.655 58.16 3.687 3.926.147 5.671.885 5.38 2.212-.29 1.033.291 3.835 1.309 6.195 1.308 3.245 1.308 4.572-.291 6.637-1.454 1.622-1.454 2.065-.145 1.327 1.017-.59 1.744-.295 1.744 1.033 0 1.327 1.745 2.065 5.09 2.065 4.216 0 5.088-.59 5.234-3.098 0-1.77.581-6.49 1.163-10.766.727-4.868.582-7.375-.29-6.785-.873.59-1.164-.442-.728-2.212.582-1.77.291-2.95-.436-2.36-.727.442-1.309-.59-1.309-2.36 0-2.065.582-2.802 1.89-2.065 1.164.885 1.164.443-.145-1.327-3.199-3.982-.436-9.44 4.508-8.555.581 0 1.017-.884 1.017-2.064 0-1.328 1.454-2.213 3.78-2.213 2.036 0 3.345.59 2.909 1.18-.291.59.727 1.328 2.472 1.328 1.744.147 3.344 1.032 3.635 1.917.29.737 1.163 1.032 1.89.59.872-.443 2.18-.148 3.199.59 3.053 2.507 15.994 4.72 18.03 2.95 1.017-.885 1.453-2.213.872-2.95-1.745-3.097-1.454-11.8.581-13.864 1.89-1.77 1.745-2.065-.145-2.065-3.344 0-2.908-1.917 1.308-5.9 2.763-2.654 3.2-3.834 1.89-4.72-1.453-.884-1.453-1.18 0-1.18 1.018 0 1.455-.737 1.018-1.474-2.471-4.13-2.035-11.504 1.018-17.994 3.199-6.637 8.433-11.651 6.398-6.047-.873 2.065-.582 2.213.727.885 1.745-1.77.436-5.457-1.6-4.13-.727.443-1.017-2.064-.727-5.457.291-3.54 1.309-6.489 2.181-6.784 1.164-.443 1.164-1.18 0-2.507-1.89-2.213.582-4.425 4.944-4.425 1.89 0 2.908-1.18 3.199-4.13.145-2.212-.291-3.982-1.018-3.982-.872 0-1.018-.737-.436-1.622.581-1.18 1.308-1.033 2.18.295.728 1.18 1.31 1.327 1.31.59 0-.885-.728-2.36-1.6-3.245-2.036-2.065 3.635-6.195 7.997-5.752 5.089.59 4.653-4.867-.582-6.637-5.089-1.918-6.688-5.457-3.635-8.555 1.6-1.622 2.181-1.77 2.181-.442 0 1.032.582 1.622 1.309 1.18.727-.443 3.053.147 5.38 1.327 4.507 2.36 8.142 1.18 4.507-1.475-3.344-2.36-3.053-4.72.436-5.9 1.6-.442 2.763-1.622 2.472-2.506-.581-3.393-4.653-7.08-7.851-7.08-4.653 0-8.143-4.13-7.416-8.997.436-2.212.146-3.835-.581-3.392-.582.442-1.164-.885-1.164-2.95 0-2.065.727-4.13 1.454-4.572.873-.59.291-1.917-1.308-3.392-1.6-1.328-3.199-4.425-3.49-6.637-.581-5.015-7.415-12.684-12.94-14.602-4.799-1.77-5.962-5.31-6.107-18.288-.146-6.195-.727-8.85-1.745-8.407-1.454.59-5.961-8.997-5.38-11.357 1.163-5.457 1.018-6.637-1.745-6.637-1.599 0-2.762-.885-2.471-1.917.145-1.18-.291-1.623-1.018-1.033-3.054 1.918-13.232-5.31-18.902-13.421-3.199-4.572-5.525-8.85-5.235-9.44.437-.59-.436-1.032-1.89-.884-1.89.147-2.617-1.18-2.908-5.605-.29-3.245-1.6-6.637-2.762-7.522-1.309-1.032-1.89-2.36-1.454-3.245.436-.737-2.036-2.95-5.671-4.72-3.49-1.77-6.107-3.981-5.67-4.719.581-.737 0-.885-1.164-.442-2.472.885-7.415-7.67-5.816-10.177.436-.885.146-1.033-.727-.443-1.018.59-1.745.295-1.745-.59 0-2.064-6.833-8.554-12.068-11.209-2.326-1.327-3.635-2.95-3.053-3.834.581-1.033.436-1.18-.582-.59-1.89 1.18-9.305-4.868-8.142-6.785.436-.737.145-1.032-.582-.885-.872.295-1.6-.147-1.745-1.032-.145-.885-1.454-3.54-3.053-6.047-1.454-2.508-2.181-5.015-1.6-5.605.582-.59.437-1.032-.436-.885-3.49.738-5.234-.147-4.943-2.655.436-3.097-1.309-7.522-4.217-10.914-1.163-1.475-1.745-3.54-1.163-4.867.436-1.327.29-1.917-.582-1.475-1.744 1.033-4.798-4.867-3.78-7.374.872-2.36-3.49-4.277-10.033-4.425-2.762 0-4.216-.737-3.925-1.917.145-1.18-.291-1.623-1.018-1.18-.727.442-3.2-1.033-5.525-3.54-2.181-2.36-4.508-4.425-5.09-4.425-2.762 0-12.65-8.406-12.795-10.766 0-5.015 3.926-12.094 9.742-17.404 3.199-2.95 6.252-6.195 6.834-7.08C184.368.442 160.522 0 92.33 0H0zm358.702 269.315c0 1.18.582 2.212 1.454 2.212.873 0 1.454-1.032 1.454-2.212 0-1.18-.581-2.212-1.454-2.212-.872 0-1.454 1.032-1.454 2.212z" />
		<path d="M339.364 311.054c-.436.738-.29 1.77.437 2.213.727.442 1.308-.148 1.308-1.328 0-2.507-.436-2.802-1.745-.885zm-6.833 15.192c-3.054 3.687-3.2 5.014-1.164 6.342.873.442 1.454 0 1.454-1.18s1.018-2.95 2.181-3.982c2.327-1.918 2.908-4.425 1.164-4.425-.727 0-2.327 1.475-3.635 3.245zm-8.434 20.501c0 1.475-.727 2.802-1.599 2.802s-1.309 1.475-1.018 3.245c.291 1.917 1.018 3.392 1.89 3.392.873 0 2.036-1.475 2.908-3.392.727-1.77 1.89-3.245 2.472-3.245 2.472 0 1.018-4.13-1.745-4.867-2.18-.59-2.908 0-2.908 2.065zm-5.67 34.217c-1.018 1.328-1.454 3.688-.873 5.015.873 2.507 1.018 2.507 2.327 0 .872-1.475 1.308-3.687 1.018-5.015-.437-2.212-.582-2.212-2.472 0z" />
	</g>
</svg>